<svg width="21" height="19" viewBox="0 0 21 19" fill="none" xmlns="http://www.w3.org/2000/svg">
<path d="M9.5 18V17L2.5 11C1.27604 9.83354 0.526042 8.68488 0.5 7C0.526042 5.60025 0.640625 4.03685 1.5 3C2.33333 1.98907 4.11979 1.28513 5.5 0.999998C7.11458 0.714865 8.19792 1.09276 9.5 2C9.86458 2.23329 10.2135 2.66302 10.5 3C10.6562 2.81855 11.2917 2.15553 11.5 2C11.3438 2.10368 11.6302 1.87039 11.5 2C12.8021 1.09276 13.8854 0.740786 15.5 0.999998C16.8802 1.28513 18.6667 1.96315 19.5 3C20.3594 4.03685 20.474 5.60025 20.5 7C20.474 8.68488 19.724 9.83354 18.5 11L11.5 17V18C11.1615 18.3111 10.9427 18 10.5 18C10.0573 18 9.83854 18.3111 9.5 18ZM9.5 5C9.5 5 9.52604 5.02592 9.5 5V4C9.03125 3.48157 8.125 3.20737 7.5 3C6.875 2.79263 6.17708 2.87039 5.5 3C4.58854 3.18145 4.07292 3.30013 3.5 4C2.92708 4.67395 2.52604 6.04091 2.5 7C2.52604 8.14053 2.66667 9.19644 3.5 10L10.5 16L17.5 10C18.3333 9.19644 18.474 8.14053 18.5 7C18.474 6.04091 18.0729 4.67395 17.5 4C16.9271 3.30013 16.4115 3.18145 15.5 3C14.8229 2.87039 14.125 2.79263 13.5 3C12.875 3.20737 11.9688 3.48157 11.5 4V5C11.5 5 11.526 4.97408 11.5 5C11.3177 5.18145 10.7604 5 10.5 5C10.2396 5 9.68229 5.18145 9.5 5Z" fill="#F82BA9"/>
</svg>
