<svg width="30" height="27" viewBox="0 0 30 27" fill="none" xmlns="http://www.w3.org/2000/svg">
<path d="M4.80177 0.549545C3.48838 0.588175 2.38744 1.03241 1.49897 1.88226C0.649126 2.77073 0.204889 3.87166 0.16626 5.18506V21.8729C0.204889 23.1863 0.649126 24.2872 1.49897 25.1757C2.38744 26.0256 3.48838 26.4698 4.80177 26.5084H25.198C26.5114 26.4698 27.6124 26.0256 28.5008 25.1757C29.3507 24.2872 29.7949 23.1863 29.8335 21.8729V8.89347C29.7949 7.58007 29.3507 6.47914 28.5008 5.59067C27.6124 4.74082 26.5114 4.29659 25.198 4.25796H6.65598C6.07654 4.29659 5.76751 4.60562 5.72888 5.18506C5.76751 5.7645 6.07654 6.07353 6.65598 6.11216H25.198C25.9706 6.15079 26.6273 6.4212 27.1681 6.92338C27.6703 7.46419 27.9407 8.12089 27.9793 8.89347V21.8729C27.9407 22.6455 27.6703 23.3022 27.1681 23.843C26.6273 24.3452 25.9706 24.6156 25.198 24.6542H4.80177C4.02919 24.6156 3.37249 24.3452 2.83168 23.843C2.3295 23.3022 2.05909 22.6455 2.02047 21.8729V5.18506C2.05909 4.41247 2.3295 3.75578 2.83168 3.21497C3.37249 2.71279 4.02919 2.44238 4.80177 2.40375H27.0522C27.6317 2.36512 27.9407 2.05609 27.9793 1.47665C27.9407 0.897209 27.6317 0.588175 27.0522 0.549545H4.80177ZM22.4167 16.7738C23.2666 16.6966 23.7301 16.233 23.8074 15.3832C23.7301 14.5333 23.2666 14.0698 22.4167 13.9925C21.5669 14.0698 21.1033 14.5333 21.0261 15.3832C21.1033 16.233 21.5669 16.6966 22.4167 16.7738Z" fill="white"/>
</svg>
