<svg width="26" height="27" viewBox="0 0 26 27" fill="none" xmlns="http://www.w3.org/2000/svg">
<path d="M2.16443 10.9215C2.82113 8.4106 4.11521 6.38257 6.04668 4.8374C8.01677 3.2536 10.3345 2.44238 12.9999 2.40375C15.0859 2.44238 16.9594 2.94456 18.6205 3.91029C20.3202 4.91466 21.6529 6.26668 22.6186 7.96637H19.4897C18.9102 8.005 18.6012 8.31403 18.5626 8.89347C18.6012 9.47291 18.9102 9.78194 19.4897 9.82057H24.1831H25.0523C25.6317 9.78194 25.9408 9.47291 25.9794 8.89347V3.33085C25.9408 2.75142 25.6317 2.44238 25.0523 2.40375C24.4728 2.44238 24.1638 2.75142 24.1252 3.33085V6.86543C22.9663 4.93397 21.4211 3.40811 19.4897 2.28786C17.5582 1.16761 15.395 0.588175 12.9999 0.549545C9.87097 0.626804 7.16692 1.59254 4.8878 3.44674C2.57004 5.30095 1.0635 7.69596 0.368171 10.6318C0.290913 11.2499 0.580632 11.5975 1.23733 11.6748C1.73951 11.6361 2.06786 11.3851 2.22238 10.9215H2.16443ZM23.8355 16.1944C23.1788 18.6667 21.8847 20.6754 19.9532 22.2206C17.9831 23.8044 15.6654 24.6156 12.9999 24.6542C10.914 24.6156 9.04045 24.1134 7.37939 23.1477C5.6797 22.1433 4.34699 20.7913 3.38126 19.0916H6.51023C7.08967 19.053 7.3987 18.7439 7.43733 18.1645C7.3987 17.5851 7.08967 17.276 6.51023 17.2374H1.81677H0.947611C0.406801 17.276 0.0977664 17.5851 0.0205078 18.1645V23.7271C0.0977664 24.3066 0.406801 24.6156 0.947611 24.6542C1.52705 24.6156 1.83608 24.3066 1.87471 23.7271V20.2505C3.03359 22.1433 4.57876 23.6499 6.51023 24.7701C8.44169 25.8904 10.6049 26.4698 12.9999 26.5084C16.1289 26.4312 18.8523 25.4654 21.17 23.6112C23.4492 21.757 24.9364 19.362 25.6317 16.4262C25.709 15.8081 25.4193 15.4604 24.7626 15.3832C24.2604 15.4218 23.9513 15.6729 23.8355 16.1365V16.1944Z" fill="white"/>
</svg>
